<?xml version="1.0" encoding="UTF-8" standalone="no"?>
<svg
   xmlns:dc="http://purl.org/dc/elements/1.1/"
   xmlns:cc="http://creativecommons.org/ns#"
   xmlns:rdf="http://www.w3.org/1999/02/22-rdf-syntax-ns#"
   xmlns:svg="http://www.w3.org/2000/svg"
   xmlns="http://www.w3.org/2000/svg"
   viewBox="0 0 1288 1288"
   height="1288"
   width="1288"
   xml:space="preserve"
   id="svg2"
   version="1.1"><metadata
     id="metadata8"><rdf:RDF><cc:Work
         rdf:about=""><dc:format>image/svg+xml</dc:format><dc:type
           rdf:resource="http://purl.org/dc/dcmitype/StillImage" /></cc:Work></rdf:RDF></metadata><defs
     id="defs6" /><g
     transform="matrix(1.3333333,0,0,-1.3333333,0,1288)"
     id="g10"><g
       transform="scale(0.1)"
       id="g12"><path
         id="path14"
         style="fill:none;stroke:#0e0f0e;stroke-width:300;stroke-linecap:round;stroke-linejoin:miter;stroke-miterlimit:10;stroke-dasharray:none;stroke-opacity:1"
         d="m 2627.92,5940.23 c 0,238.68 210.41,414.54 449.09,414.54 h -18.64 423.18 c 238.68,0 431.82,147.08 431.82,431.82 h 0.12 l 12.35,1603.82" /><path
         id="path16"
         style="fill:none;stroke:#0e0f0e;stroke-width:300;stroke-linecap:round;stroke-linejoin:miter;stroke-miterlimit:10;stroke-dasharray:none;stroke-opacity:1"
         d="m 2628.94,5245.62 c 0,-238.69 210.41,-414.55 449.09,-414.55 h 455.15 -7.27 c 238.68,0 431.82,-193.14 431.82,-431.82 l 0.47,9.37 V 1061.48" /><path
         id="path18"
         style="fill:none;stroke:#0e0f0e;stroke-width:300;stroke-linecap:round;stroke-linejoin:miter;stroke-miterlimit:10;stroke-dasharray:none;stroke-opacity:1"
         d="m 1189.04,8388.97 0.16,-1602.68 c 0,-243.46 197.01,-440.46 440.46,-440.46 h 540.19 c 238.68,0 449.09,-175.86 449.09,-414.54" /><path
         id="path20"
         style="fill:none;stroke:#0e0f0e;stroke-width:300;stroke-linecap:round;stroke-linejoin:miter;stroke-miterlimit:10;stroke-dasharray:none;stroke-opacity:1"
         d="m 2620.3,5240.8 c 0,-238.68 -210.41,-414.54 -449.09,-414.54 h 18.22 -539.77 l -0.68,-3.27 c -293.58,0 -531.14,-239.96 -531.14,-536.51 V 1074.71" /><path
         id="path22"
         style="fill:#0e0f0e;fill-opacity:1;fill-rule:nonzero;stroke:none"
         d="m 4729.89,833.152 c 3.01,1726.878 1787.36,3127.388 3752.65,3129.468 2.42,0 4.39,-1.91 4.39,-4.26 v -2827.6 c 0,-164.35 -138.68,-298.819 -308.17,-298.819 H 5035.63 c 0,0 -305.75,-1.5 -305.74,1.211" /><path
         id="path24"
         style="fill:none;stroke:#0e0f0e;stroke-width:300;stroke-linecap:round;stroke-linejoin:miter;stroke-miterlimit:10;stroke-dasharray:none;stroke-opacity:1"
         d="m 4729.89,833.152 c 3.01,1726.878 1787.36,3127.388 3752.65,3129.468 2.42,0 4.39,-1.91 4.39,-4.26 v -2827.6 c 0,-164.35 -138.68,-298.819 -308.17,-298.819 H 5035.63 c 0,0 -305.75,-1.5 -305.74,1.211 z" /><path
         id="path26"
         style="fill:none;stroke:#0e0f0e;stroke-width:300;stroke-linecap:round;stroke-linejoin:miter;stroke-miterlimit:10;stroke-dasharray:none;stroke-opacity:1"
         d="M 2625.23,8631.48 V 1164.93" /><path
         id="path28"
         style="fill:#0e0f0e;fill-opacity:1;fill-rule:nonzero;stroke:none"
         d="m 2841.14,8840.58 c 0,-119.25 -96.67,-215.91 -215.91,-215.91 -119.24,0 -215.91,96.66 -215.91,215.91 0,119.24 96.67,215.9 215.91,215.9 119.24,0 215.91,-96.66 215.91,-215.9" /><path
         id="path30"
         style="fill:none;stroke:#0e0f0e;stroke-width:250;stroke-linecap:round;stroke-linejoin:miter;stroke-miterlimit:10;stroke-dasharray:none;stroke-opacity:1"
         d="m 2841.14,8840.58 c 0,-119.25 -96.67,-215.91 -215.91,-215.91 -119.24,0 -215.91,96.66 -215.91,215.91 0,119.24 96.67,215.9 215.91,215.9 119.24,0 215.91,-96.66 215.91,-215.9 z" /><path
         id="path32"
         style="fill:none;stroke:#0e0f0e;stroke-width:180;stroke-linecap:round;stroke-linejoin:miter;stroke-miterlimit:10;stroke-dasharray:none;stroke-opacity:1"
         d="m 2872.4,850.68 c 0,-136.5 -110.66,-247.16 -247.17,-247.16 -136.5,0 -247.16,110.66 -247.16,247.16 0,136.511 110.66,247.17 247.16,247.17 136.51,0 247.17,-110.659 247.17,-247.17 z" /><path
         id="path34"
         style="fill:none;stroke:#0e0f0e;stroke-width:300;stroke-linecap:round;stroke-linejoin:miter;stroke-miterlimit:10;stroke-dasharray:none;stroke-opacity:1"
         d="M 6651.71,8830 V 4930.59 c 0,-236.49 -191.71,-428.2 -428.2,-428.2 l -1068.62,-0.91 6.82,-0.89 c -236.49,0 -428.2,-191.71 -428.2,-428.2 l -2.83,19.09 -0.79,-3255" /><path
         id="path36"
         style="fill:none;stroke:#0e0f0e;stroke-width:120;stroke-linecap:butt;stroke-linejoin:miter;stroke-miterlimit:10;stroke-dasharray:none;stroke-opacity:1"
         d="M 9480,60 H 180 C 114,60 60,114 60,180 v 9300 c 0,66 54,120 120,120 h 9300 c 66,0 120,-54 120,-120 V 180 c 0,-66 -54,-120 -120,-120 z" /><path
         id="path38"
         style="fill:none;stroke:#0e0f0e;stroke-width:300;stroke-linecap:round;stroke-linejoin:miter;stroke-miterlimit:10;stroke-dasharray:none;stroke-opacity:1"
         d="M 8350,8070 C 7197.75,9222.25 6150.58,9260.58 4945,8055" /><path
         id="path40"
         style="fill:#0e0f0e;fill-opacity:1;fill-rule:nonzero;stroke:none"
         d="M 4832.47,7518.63 4437.58,6210.77 c -77.6,-257.03 102.14,-526.64 370.3,-540.21 7.27,-0.37 14.6,-0.56 21.97,-0.56 7.37,0 14.7,0.19 21.98,0.56 267.78,13.55 447.62,282.33 370.98,539.27 l -390.34,1308.8" /><path
         id="path42"
         style="fill:none;stroke:#0e0f0e;stroke-width:200;stroke-linecap:butt;stroke-linejoin:miter;stroke-miterlimit:10;stroke-dasharray:none;stroke-opacity:1"
         d="M 4832.47,7518.63 4437.58,6210.77 c -77.6,-257.03 102.14,-526.64 370.3,-540.21 7.27,-0.37 14.6,-0.56 21.97,-0.56 7.37,0 14.7,0.19 21.98,0.56 267.78,13.55 447.62,282.33 370.98,539.27 z" /><path
         id="path44"
         style="fill:#0e0f0e;fill-opacity:1;fill-rule:nonzero;stroke:none"
         d="m 5045.91,7790 c 0,-119.24 -96.66,-215.91 -215.91,-215.91 -119.24,0 -215.91,96.67 -215.91,215.91 0,119.24 96.67,215.91 215.91,215.91 119.25,0 215.91,-96.67 215.91,-215.91" /><path
         id="path46"
         style="fill:none;stroke:#0e0f0e;stroke-width:250;stroke-linecap:round;stroke-linejoin:miter;stroke-miterlimit:10;stroke-dasharray:none;stroke-opacity:1"
         d="m 5045.91,7790 c 0,-119.24 -96.66,-215.91 -215.91,-215.91 -119.24,0 -215.91,96.67 -215.91,215.91 0,119.24 96.67,215.91 215.91,215.91 119.25,0 215.91,-96.67 215.91,-215.91 z" /><path
         id="path48"
         style="fill:none;stroke:#0e0f0e;stroke-width:200;stroke-linecap:butt;stroke-linejoin:miter;stroke-miterlimit:10;stroke-dasharray:none;stroke-opacity:1"
         d="M 8402.47,7548.63 8007.58,6240.77 c -77.61,-257.03 102.15,-526.64 370.29,-540.21 7.29,-0.37 14.61,-0.56 21.98,-0.56 7.37,0 14.7,0.19 21.98,0.56 267.78,13.55 447.62,282.33 370.98,539.27 l -390.34,1308.8" /><path
         id="path50"
         style="fill:none;stroke:#0e0f0e;stroke-width:250;stroke-linecap:round;stroke-linejoin:miter;stroke-miterlimit:10;stroke-dasharray:none;stroke-opacity:1"
         d="m 8615.91,7820 c 0,-119.24 -96.66,-215.91 -215.91,-215.91 -119.25,0 -215.91,96.67 -215.91,215.91 0,119.24 96.66,215.91 215.91,215.91 119.25,0 215.91,-96.67 215.91,-215.91 z" /></g></g></svg>